<svg id="svg" version="1.1" viewBox="0 0 300 206.32603406326035" width="300" height="206.32603406326035" xmlns="http://www.w3.org/2000/svg"><svg xmlns="http://www.w3.org/2000/svg"><defs><clipPath id="clip-1"><rect x="0" y="0" transform="scale(0.14648,0.14643)" width="2048" height="1409" fill="none"/></clipPath></defs><g clip-path="url(#clip-1)" fill="none" fill-rule="nonzero" stroke="none" stroke-width="1" stroke-linecap="butt" stroke-linejoin="miter" stroke-miterlimit="10" stroke-dasharray="" stroke-dashoffset="0" font-family="none" font-weight="none" font-size="none" text-anchor="none" style="mix-blend-mode: normal"><path d="M0,0h300v206.32603h-300z" fill="#ffffff"/><path d="M67.46836,34.16314c0.14121,-0.01889 0.28271,-0.03427 0.42466,-0.04642c2.48892,-0.22595 4.96494,0.55176 6.87744,2.16005c7.60137,6.49539 6.12349,19.87232 0.00352,26.8729c-1.38999,1.59013 -3.07192,2.91917 -4.44346,4.50564l-0.12847,0.1501c0.17358,0.02812 0.34775,0.05198 0.52236,0.0719c2.23022,0.2425 18.20068,1.23869 20.47178,0.62689c0.98452,-0.26534 3.77798,-13.2242 3.92168,-14.98317c0.18428,-2.25582 -9.08394,-0.54708 -10.33901,-1.77273c0.2001,-1.43301 6.94482,-8.74477 8.5752,-9.01758c2.1457,-0.35891 6.03193,-0.26109 8.31636,-0.27076l14.06338,-0.05652c11.10088,-0.1025 22.20234,-0.12945 33.30381,-0.08069c7.06201,0.00322 15.59326,-0.09577 22.53516,0.20398c-1.32129,2.38337 -3.70459,4.17382 -5.37744,6.10866c-3.43799,3.97643 -4.87646,2.80744 -9.12598,3.99312l-0.16992,0.04891c-0.79687,1.45248 -1.25684,4.5216 -1.9292,6.32699c-2.66748,7.16782 -6.62549,9.77025 -12.01055,14.46435c3.83965,1.4128 17.16094,1.21423 21.85723,1.21731c3.19629,-0.00469 6.39111,0.04788 9.58594,0.158c-0.01465,0.02519 -0.02783,0.05067 -0.04102,0.07556c-0.0249,0.04173 -0.0498,0.08244 -0.07324,0.12418c-0.36475,0.65163 -0.81885,1.19212 -1.3125,1.74828c-1.54248,1.73686 -5.66309,6.31147 -7.57031,7.30869c-2.69385,1.40885 -17.69531,-0.08889 -22.00942,0.21731c-0.56733,0.04027 -1.09292,0.07849 -1.47876,0.52804c0.01069,0.12462 0.02124,0.33285 0.08994,0.44355c10.95146,17.67946 23.12285,34.69748 37.26885,49.97893c1.6875,1.8234 5.28369,5.6449 7.39014,6.56465c1.26563,-0.40518 6.12158,-3.46815 7.63916,-4.3964c6.57715,-4.08728 14.62646,-6.70655 22.24365,-7.76205c10.81348,-1.49846 22.95264,-1.32611 31.22314,6.81081c2.69092,2.53551 4.86328,5.30664 5.33936,9.11173c0.76172,6.08376 -2.8418,8.54825 -7.28027,11.69366c-6.66504,4.72544 -13.81934,9.63099 -22.02539,11.10265c-2.06396,0.37048 -4.48975,0.04979 -6.58154,0.11129c-14.99414,0.06882 -28.45605,-7.8562 -40.10742,-16.79309c-2.13135,1.21687 -4.29639,2.37077 -6.49365,3.46464c0.29883,0.85811 0.58887,1.7206 0.87158,2.58457c1.76514,5.47079 1.68457,12.45571 -0.97412,17.61606c-2.37598,4.60829 -6.79834,7.50183 -11.18701,9.9385c-1.65967,0.92107 -3.27246,1.91097 -5.09766,2.47181l-0.17139,-0.15815c0.13916,-0.94157 1.80469,-1.83629 2.37451,-2.48792c2.64404,-3.02826 4.56299,-7.82985 4.52197,-11.79675c-0.04395,-4.18363 0.0835,-8.67038 -2.8667,-11.7909c-1.31689,0.51106 -3.13184,1.55513 -4.43115,2.23312c-1.92041,0.9899 -3.85693,1.94904 -5.80957,2.87744c-2.67847,1.29155 -8.02222,3.92298 -10.72617,4.86455c-8.22495,2.86279 -19.27852,4.9568 -27.93135,4.27588c-8.45874,-0.81125 -15.31348,-4.25245 -20.91138,-10.48031c-11.17808,-12.43521 0.57422,-23.27208 11.28369,-29.71593c2.13823,-1.33153 4.22622,-2.86689 6.47798,-4.00088c10.2895,-5.18187 23.91929,-5.78108 34.52212,-1.16342c11.05562,4.81491 20.57417,12.74023 28.32466,21.87832c1.09424,-0.60477 4.3667,-2.24337 4.56445,-3.33578c-0.20508,-1.06165 -1.65381,-2.13501 -2.48877,-2.87597c-12.0835,-11.6963 -22.08105,-26.61196 -32.16621,-40.03765c-5.09517,-6.78299 -9.02051,-14.74609 -15.17212,-20.76117c-1.28408,-1.25538 -4.41343,-2.60302 -5.36865,-4.00688c-0.16436,-1.84302 7.3147,-6.35686 8.96279,-7.19344c3.0791,-1.56289 5.15962,1.3882 7.67754,2.38205l0.18809,0.07307c7.5873,-2.5749 11.24194,-12.532 11.76577,-19.93645c0.06738,-0.96061 0.21973,-1.98858 0.06738,-2.93762c-0.06592,-0.40782 -0.2959,-0.62088 -0.63823,-0.81066c-0.39609,-0.24821 -1.57617,-0.47254 -1.99907,-0.47386c-3.38188,-0.00952 -21.76274,-0.43066 -23.96924,0.23517c-1.0311,1.52204 -1.87207,6.38249 -2.33174,8.415c-0.67632,2.91214 -1.39072,5.81535 -2.14321,8.70875c-1.7584,6.81886 -3.87275,13.6739 -5.2021,20.58238c-0.51841,2.69366 -1.43145,9.21775 0.94644,11.19667c1.28862,1.07249 2.67568,1.03192 4.25566,0.89032c-1.37256,1.86616 -3.98936,3.94582 -5.82451,5.3472c-2.26567,1.73027 -6.12612,5.25743 -8.70894,2.15244c-1.26592,-1.52189 -1.57046,-5.01465 -1.50601,-6.93235c0.24521,-5.49817 1.63711,-10.8565 2.9231,-16.18481c1.73071,-7.12945 3.41323,-14.27047 5.04727,-21.42276c0.38452,-1.73598 2.81719,-11.75927 2.00669,-12.78431c-1.00459,-0.55791 -3.18911,-0.29726 -4.31938,-0.12989c-0.82412,1.27559 -1.40347,3.48016 -1.74141,4.98609c-2.96777,13.37092 -7.88599,26.40929 -10.43921,39.86002c-0.9189,4.84053 -2.77354,12.56671 3.19072,14.66379c0.79175,0.27852 1.83501,0.25406 2.46255,0.86162c-0.13608,1.09079 -8.4731,8.03002 -9.72349,8.23913c-11.41729,1.91009 -6.07969,-17.96706 -4.82139,-23.6408c1.02876,-4.57051 2.11802,-9.12711 3.26733,-13.66892c0.25562,-1.04086 1.78418,-5.57051 0.31377,-5.72046c-1.67432,-0.17074 -7.76016,-0.49539 -9.09829,0.07263c-0.36987,0.57681 0.0416,1.94948 0.20332,2.60609c1.44653,5.60932 0.39199,13.14483 -3.88975,17.47445c-5.91812,5.98433 -15.33164,11.66628 -23.16475,14.90468c-1.92231,0.7947 -5.42988,1.27559 -7.43701,1.35335c-7.13496,0.13779 -14.07246,-2.1025 -19.58159,-6.49788c-16.23335,-12.95124 -4.02524,-24.05653 9.49746,-31.08743c3.43228,-1.78445 8.00024,-3.31073 11.25161,-0.07746c1.673,1.66335 5.39077,5.889 3.07002,8.41602c-0.94409,0.72514 -9.65698,7.48104 -10.27324,5.55133c-0.83452,-2.10763 -2.41157,-5.48162 -4.12632,-7.02036c-3.11821,-2.79821 -6.46963,0.1583 -6.56968,3.72866c-0.13667,4.87831 3.5417,8.99678 7.15913,11.68239c5.08242,3.77317 11.58325,6.69395 17.93379,7.08991c3.3293,0.1621 7.68193,0.8275 10.24263,-1.73203c5.83784,-5.70084 6.48691,-18.28848 0.77607,-24.27882c-4.62715,-5.03866 -8.10381,-1.72368 -13.25801,-1.99985c2.31489,-3.65749 12.46597,-7.86953 15.04717,-11.15625c2.88896,-4.12286 3.27173,-10.43008 2.53945,-15.16621c-0.60513,-3.91419 -4.83076,-10.2012 -9.35947,-8.89852c-1.71885,0.49451 -2.72593,0.93352 -2.66938,2.93952c-0.38701,2.30107 3.825,4.14439 3.96768,5.43447c0.28271,2.55557 -5.56553,7.75575 -8.04932,8.06678c-1.33257,0.16694 -2.94932,0.15288 -3.74268,-0.59804c-6.29912,-5.96208 -0.35537,-12.82267 4.95937,-16.69147c5.09912,-3.96193 7.72896,-7.03178 14.0707,-8.01523z" fill="#000000"/><path d="M114.26807,134.92859c2.73691,-0.14512 5.50122,-0.13736 8.17456,0.48821c10.55625,2.41983 19.42178,8.6572 27.323,15.8133c1.38428,1.25348 6.65771,5.50886 6.23877,7.4169c-0.95361,1.50681 -11.58486,5.75634 -13.83633,6.51926c-2.23374,0.74096 -4.49663,1.38966 -6.78311,1.94465c-2.85322,0.66188 -5.75229,1.10851 -8.67261,1.33548c-2.02661,0.15815 -5.32324,0.25333 -7.36099,-0.03222c-6.29897,-0.88739 -12.99961,-4.0372 -17.83638,-8.14614c-4.03579,-3.42803 -6.15659,-7.00981 -6.58066,-12.3327c-0.19937,-2.50461 0.45762,-4.41368 2.16621,-6.28818c4.32246,-4.74257 11.08301,-6.26095 17.16753,-6.71856z" fill="#ffffff"/><path d="M211.99951,137.11895c2.4873,-0.23561 7.00781,0.1028 9.43799,0.5052c5.63965,0.91785 10.50439,3.15595 14.77295,6.95695c2.63086,2.23107 4.6875,4.13765 5.34082,7.68868c1.08691,5.91302 -3.6416,7.84303 -8.57812,8.2999c-4.80469,0.44662 -8.81396,-0.01318 -13.47217,-0.93864c-1.24512,-0.28994 -2.48291,-0.60185 -3.71631,-0.93425c-8.66016,-2.40738 -16.74902,-6.52219 -23.79346,-12.10427c-0.83789,-0.6613 -2.85205,-2.20794 -3.35156,-3.07878c0.98291,-2.14951 20.34082,-6.06502 23.35986,-6.39479z" fill="#ffffff"/><path d="M198.02637,12.06378c13.48975,-1.7022 23.52246,13.0298 21.14063,25.46428c-3.35449,17.51384 -20.10059,30.76147 -33.54053,40.85592c1.27002,2.88315 3.62549,8.84127 5.77588,10.90336c3.19629,3.06341 7.69189,4.57183 12.06006,4.61503c5.45068,0.29331 9.50244,-0.99502 14.33057,-3.22741c5.4917,-2.53961 5.00977,-4.19432 6.48633,-9.71519l2.49756,-9.48177l2.60156,-10.12345c0.58594,-2.3163 1.72119,-6.38044 1.71533,-8.6758c-4.20703,-0.66174 -10.70801,-0.07249 -14.4917,-0.76263c0.84375,-2.01245 3.39551,-4.39113 4.88525,-5.89472c2.35547,-2.25319 2.98535,-3.54884 6.39844,-3.55865c4.1792,-0.01201 8.41846,-0.12505 12.55078,-0.13326l34.55273,0.00337c-0.15967,0.28921 -0.33105,0.57183 -0.51416,0.84712c-1.0708,1.5916 -6.75879,7.3204 -8.40967,8.27003c-1.71094,0.98301 -7.13818,0.73949 -9.65918,1.20472c-0.97559,1.69556 -3.01025,8.46918 -3.76318,10.67228l-4.47363,12.7004c-1.91162,5.39318 -3.82324,10.79851 -4.63184,16.49876c-0.28857,2.03119 -0.5918,5.07249 0.71338,6.77288c1.37549,1.79236 4.38867,1.66423 6.60791,1.95343c-2.01855,2.19212 -6.79395,5.74096 -9.39697,7.43067c-1.55566,0.92122 -4.19678,1.21409 -5.89014,0.69644c-2.76416,-0.91639 -2.83594,-3.62454 -2.87402,-6.0596c-0.1084,-6.98726 2.48877,-13.95432 4.53369,-20.58721c1.99365,-6.3062 3.95215,-12.62323 5.87695,-18.9508c0.9375,-3.08859 1.88672,-6.21043 2.72168,-9.31279c0.67822,-2.52292 -2.43164,-2.65983 -3.95068,-1.90335c-0.26953,0.13413 -1.07959,2.50754 -1.19385,2.87099c-1.021,3.26065 -1.77832,6.59145 -2.6792,9.883c-1.14404,4.03778 -2.33789,8.06063 -3.58447,12.0678l-4.19531,13.37063c-1.24072,3.94275 -2.49023,7.93557 -3.2959,11.73027c-1.66406,7.82897 0.0791,10.62821 7.90283,11.97409c0.52295,0.09006 1.41357,0.42012 1.73438,0.90892c-1.40332,3.12989 -10.75928,10.50696 -14.67773,9.05038c-3.48047,-1.29331 -6.38232,-4.48089 -6.27539,-8.28657c0.22998,-8.29155 3.36328,-16.69191 5.52246,-24.63422c-1.24219,0.63816 -4.41064,2.97599 -5.61328,3.91009c-4.76221,3.69893 -11.146,6.92752 -17.26465,7.34749c-7.47803,0.51311 -15.5625,-0.34676 -19.43115,-7.8584c-1.33887,-2.59833 -2.01562,-5.43374 -4.14404,-7.60771c-0.74707,-0.76307 -1.78564,-1.83307 -2.80078,-2.28042c-0.65771,-0.29023 -2.31445,-0.28789 -2.87256,-0.77757c0.31934,-1.83307 7.68164,-7.71563 9.62695,-8.69791c1.35645,-0.68517 4.13379,0.59657 5.40234,1.1334l0.08203,-0.03383c2.18408,-0.91521 4.43994,-2.83512 6.22266,-4.39157c6.00732,-5.24616 12.8833,-13.8483 15.90527,-21.23987c-4.43115,3.57622 -7.08984,6.37063 -13.14404,7.17338c-9,1.02416 -16.33887,-3.5853 -17.43164,-12.90043c-1.06641,-9.07849 1.66406,-16.32685 7.15869,-23.49862c3.67969,-4.80129 8.98242,-9.00479 15.19336,-9.71541z" fill="#000000"/><path d="M196.67871,23.63422c7.13672,-0.1703 12.22705,6.80671 12.28857,13.45307c0.0293,3.17148 0.10107,6.21057 -2.3042,8.65222c-2.56934,2.60917 -5.38037,3.71519 -8.98535,3.85445c-16.9834,-0.79441 -16.77246,-25.00382 -0.99902,-25.95974z" fill="#ffffff"/><path d="M196.27002,26.5591c2.5752,-0.01128 4.53955,0.30839 6.59912,1.93425c5.40088,4.26329 4.66113,14.63773 -2.02295,17.2939c-1.15869,0.4601 -1.95996,0.59994 -3.19482,0.72265c-12.73682,0.42085 -13.71387,-18.72515 -1.38135,-19.9508z" fill="#ff3131"/><path d="M178.60107,173.34023c1.99365,1.80554 -2.40674,11.75136 -2.00391,12.89208c0.46143,0.03954 0.59033,0.04247 1.02832,0.17426c-0.2666,0.27823 -0.94482,0.42027 -1.34766,0.54034c-0.54785,1.35305 -1.23926,4.79573 -2.28516,5.55133c-0.2959,-0.05418 -0.41162,-0.07907 -0.56836,-0.38805c-1.05908,-2.0823 -1.93359,-3.83804 -3.34131,-5.70801c-3.15381,2.0164 -3.48193,4.24953 -8.16943,5.98331c-1.24951,0.47005 -5.7627,0.84493 -6.59619,-0.30605l0.09229,-0.3778c0.73242,-0.42905 2.04639,0.03368 2.97217,0.20062c1.85303,0.31923 3.76025,-0.0205 5.38916,-0.96207c4.01807,-2.27705 8.34961,-9.28394 11.0332,-13.04584c1.02539,-1.43799 2.34961,-3.55836 3.79688,-4.55411z" fill="#000000"/><path d="M177.62842,174.80311c0.69434,0.67799 -2.23975,10.22112 -2.88867,11.4336c-1.29932,0.1025 -2.34668,-0.04247 -3.61377,-0.22404c-0.32373,-0.10397 -0.17578,-0.01904 -0.4248,-0.30898c0.1626,-1.33109 5.80811,-9.35716 6.92725,-10.90057z" fill="#ffffff"/><path d="M171.06885,186.74337c1.21289,-0.12447 2.41699,0.00879 3.61816,0.16108c-0.28271,1.17001 -0.60059,2.26827 -0.9375,3.42217l-0.15967,0.40269l-0.15088,0.01171c-0.7251,-1.38234 -1.57031,-2.65925 -2.37012,-3.99766z" fill="#ffffff"/><path d="M217.74902,173.61845c0.18604,0.02343 0.35156,0.08493 0.5332,0.14058c2.95898,3.0268 -5.91504,13.50125 -5.55322,15.04467c0.46875,0.13033 2.05664,-0.44662 2.5752,-0.60917c-0.9873,0.71021 -1.59668,0.965 -2.73193,1.3838c-0.76611,1.73085 -1.68457,5.08713 -2.33643,7.04349c-0.22852,0.63992 -0.65625,1.40723 -1.34912,1.61078c-0.08057,-0.04686 -0.19043,-0.06443 -0.24316,-0.14204c-0.54053,-0.82443 2.6499,-6.75502 2.06689,-8.23254c-0.05713,-0.14204 -0.15088,-0.30312 -0.12891,-0.46273c0.09375,-0.67213 0.96387,-1.45995 1.19971,-2.18187c1.24072,-3.81608 2.34668,-11.38967 5.96777,-13.59497z" fill="#000000"/><path d="M217.78711,174.20712c1.83252,1.4087 -2.63525,9.02621 -3.79395,10.60771l-0.10986,0.04393l-0.11572,-0.11129c0.22559,-2.02372 2.57666,-8.90467 4.01953,-10.54035z" fill="#ffffff"/><path d="M194.20752,174.9759c0.14648,0.68092 -3.3457,12.5465 -3.77783,14.67419c0.77197,-1.27984 1.93213,-3.31674 3.65039,-3.34895c1.91602,0.88007 -0.48779,4.23195 0.1582,5.52204c0.55225,-0.00146 1.88818,-1.03529 2.39648,-1.38673c-1.1001,1.28862 -1.77832,2.26388 -3.5874,2.15405c-0.90234,-1.79675 0.95947,-3.84683 0.45557,-5.54693l-0.24316,-0.13033c-1.77686,0.65456 -2.9502,5.11642 -4.23633,5.54547l-0.16113,-0.2504c-0.0835,-2.5626 3.18457,-13.3021 4.04297,-16.36697c0.1333,-0.47591 0.83643,-0.69263 1.30225,-0.86543z" fill="#000000"/><path d="M218.45215,186.2616c0.47607,-0.01757 1.14844,0.00732 1.60254,0.17719c0.52002,0.19769 0.9375,0.60185 1.15137,1.11583c0.87012,2.12476 -1.11914,4.19974 -2.9502,4.99048c-4.33594,0.49641 -3.50098,-4.67858 0.19629,-6.2835z" fill="#000000"/><path d="M219.11426,186.635c2.28662,1.04115 0.271,4.60975 -1.29932,5.6099c-2.60596,-0.56084 -0.42041,-4.58925 1.29932,-5.6099z" fill="#ffffff"/><path d="M246.6123,186.2777c4.24512,0.27969 2.79785,5.37707 -0.82764,6.37429c-4.10303,0.09518 -2.96338,-5.21746 0.82764,-6.37429z" fill="#000000"/><path d="M246.60059,186.65843c2.78906,0.44223 0.59326,4.3901 -0.83057,5.50886c-2.24414,-0.29287 -1.04297,-3.18934 -0.34131,-4.37253c0.31494,-0.53156 0.68994,-0.79075 1.17188,-1.13633z" fill="#ffffff"/><path d="M258.91553,186.25135c3.06299,0.31044 -0.1377,4.2671 0.66797,5.56451c0.4248,-0.07761 1.40332,-0.84932 2.10645,-1.17294l0.14502,-0.0659c-0.16553,0.20794 -0.33545,0.41148 -0.50977,0.61063c-0.70312,0.79367 -2.13721,2.07498 -3.104,1.07483c-0.49219,-1.5566 1.26709,-4.25392 0.56689,-5.34046c-1.41211,0.18597 -2.77734,4.59658 -4.40771,5.7124l-0.20508,-0.04832c-0.10986,-0.81564 0.59033,-3.22156 0.82178,-4.08991c0.12305,-0.54327 0.34717,-1.08069 -0.15967,-1.44531c-1.48535,0.30019 -2.69531,4.94509 -4.14258,5.35803c-0.51562,-0.73949 0.37939,-6.13121 1.95264,-5.99942l0.12158,0.20208c-0.06592,0.75267 -0.46729,2.15991 -0.66504,2.9404c0.74561,-0.96793 2.05518,-3.58618 3.48193,-3.1293c0.69434,0.72192 0.5127,1.66496 0.49658,2.68707c0.98145,-1.39113 1.32861,-2.0984 2.83301,-2.8584z" fill="#000000"/><path d="M235.18652,186.20156c0.08643,0.1025 0.17285,0.20501 0.25928,0.30751c-0.01318,1.35891 -1.08105,3.72236 -0.89355,4.99488c0.26953,0.37927 0.09082,0.26065 0.56104,0.35291c1.72119,-0.70288 2.25439,-5.6919 3.67383,-5.54986c0.06445,0.082 0.12744,0.16547 0.19043,0.24894c-0.15234,1.01479 -1.22461,4.86309 0.07471,5.38293c1.30371,-0.50227 2.00537,-3.0883 2.32324,-4.32274c0.1582,-0.66042 0.271,-0.89764 0.76758,-1.32962l0.20068,0.07468c0.28711,2.25216 -4.2876,10.29727 -5.18848,3.63889c-0.52588,0.80246 -2.23242,3.69161 -3.48633,1.83629c-0.52148,-0.77171 -0.2168,-2.57578 0.06299,-3.41339c0.30762,-0.92693 0.51855,-1.71182 1.45459,-2.22141z" fill="#000000"/><path d="M200.16943,186.28942c0.5625,-0.07615 1.22607,-0.13033 1.73291,0.16547c-0.42187,0.56231 -2.7041,0.62235 -3.23291,1.96222c-0.36035,0.91082 -0.94629,2.97848 0.16553,3.52468c1.59814,-0.57549 3.30908,-5.53815 4.58936,-5.50154c0.17871,0.85518 -0.79687,3.55543 -1.11621,4.55411c-0.01758,0.29873 0.01172,0.3573 0.07471,0.64431l0.26074,0.11275c0.49219,-0.14936 1.60986,-1.06604 2.17529,-1.43945c-0.69873,0.93132 -1.59814,2.1438 -2.8667,2.24045c-1.16309,-0.43784 -0.84375,-1.29741 -0.6958,-2.36052c-0.49512,0.63699 -1.01807,1.42481 -1.68457,1.86704c-2.05664,1.36477 -3.23584,-0.55791 -2.51807,-2.48792c0.63721,-1.71182 1.53516,-2.48938 3.11572,-3.28159z" fill="#000000"/><path d="M265.40039,186.29528c0.71338,-0.02343 1.87646,0.04979 1.99072,0.91814c0.28418,2.15112 -3.08936,2.84668 -3.89941,4.17045l0.07617,0.24308c1.83691,0.73217 2.24561,-0.66335 3.68408,-1.006c-0.52295,0.61502 -1.0166,1.11144 -1.71094,1.53024c-2.26904,1.3677 -4.04883,-0.60624 -3.07764,-2.90233c0.54199,-1.27837 1.65967,-2.41324 2.93701,-2.95358z" fill="#000000"/><path d="M265.56738,186.81805c0.58447,0.03807 0.3999,-0.05418 0.82178,0.2709c0.39844,1.16269 -1.32861,2.46888 -2.15771,2.99898c-0.44238,0.14643 -0.23877,0.15668 -0.63135,0.05418l-0.07764,-0.34412c0.24902,-1.20662 1.08252,-2.24484 2.04492,-2.97994z" fill="#ffffff"/><path d="M273.54492,186.2572c0.38525,0.0615 0.49512,0.12008 0.85986,0.26944c1.21582,1.28862 -0.75879,3.81169 -0.4043,5.18524l0.27832,0.07907c0.49951,-0.32069 0.99756,-0.64578 1.49414,-0.97525l0.17871,0.041c-0.14941,0.66774 -2.24414,2.20677 -3.12012,1.33548c-0.49512,-1.5566 1.19238,-4.579 0.34131,-5.28628c-0.46289,0.06443 -0.69287,0.40416 -1.04004,0.75853c-0.77783,1.0924 -2.31885,4.3286 -3.1377,4.70347l-0.22266,-0.12008c-0.3252,-1.10265 0.58447,-5.6304 1.98047,-5.8442l0.15088,0.13179c0.09229,0.74535 -0.19629,1.81725 -0.35596,2.5831c0.93604,-1.38527 1.48242,-2.18627 2.99707,-2.86133z" fill="#000000"/><path d="M187.74609,180.32222c0.21094,0.10836 0.19482,0.12154 0.37354,0.28701c0.00586,0.78928 -0.81299,3.26988 -1.07959,4.14995c0.44531,0.02636 1.19971,-0.00586 1.43701,0.37927c-0.48633,0.28262 -0.9873,0.22844 -1.56738,0.24308c-0.62695,2.15551 -1.37842,4.41646 -1.53076,6.64519c0.72949,-0.36316 1.3374,-0.70874 2.04199,-1.12022l0.22705,0.07761c-0.80273,0.80246 -2.11377,2.23605 -3.19629,1.27398c-0.68408,-1.48192 0.48193,-4.47943 0.85547,-6.21321c-0.83203,-1.56685 0.13184,-0.9855 0.58447,-1.87143c0.66064,-1.29009 0.27246,-3.1088 1.85449,-3.85122z" fill="#000000"/><path d="M224.07275,186.29381c0.46875,0.1025 0.34863,0.01318 0.67383,0.30458c0.09521,0.72339 -0.29883,1.76014 -0.50098,2.54064c0.33984,-0.48616 0.68555,-0.96793 1.03711,-1.44384c0.44092,-0.58867 1.26416,-1.53463 1.99805,-0.96793c0.33691,0.90936 0.13916,1.55367 -0.57715,2.1233l-0.18896,-0.05711c-0.05566,-0.38952 -0.104,-0.7805 -0.14502,-1.17294l-0.23437,-0.041l-0.44238,0.41294c-0.89209,1.28277 -1.64062,3.69747 -2.88428,4.52775l-0.20947,-0.07029c-0.15088,-0.92547 0.69434,-5.61869 1.47363,-6.1561z" fill="#000000"/><path d="M181.41797,185.14137c0.46436,0.26651 0.36768,0.13179 0.62109,0.54766c-0.0249,0.51545 -0.31348,0.76878 -0.64453,1.19198c3.27539,6.97028 -3.68262,6.41968 -3.42334,4.63025l0.33691,-0.20354c0.50684,-0.01464 0.68555,0.15668 1.12354,0.42905l0.16699,0.10543c0.271,0.16108 0.33984,0.15376 0.64453,0.23869c1.54688,-0.43198 0.67676,-3.5276 0.36475,-4.60097c-0.84229,0.883 -1.42822,1.5522 -2.43018,2.26241c0.21094,-0.34705 2.99268,-4.30078 3.24023,-4.60097z" fill="#000000"/></g></svg></svg>